<?xml version="1.0" encoding="UTF-8"?><svg xmlns="http://www.w3.org/2000/svg" viewBox="0 0 505.27 205.62"><defs><style>.cls-1{fill:#662d91;font-size:92.74px;}.cls-1,.cls-2,.cls-3{stroke:#fff;stroke-miterlimit:10;}.cls-1,.cls-3{font-family:AmericanPurpose, 'American Purpose';}.cls-4{letter-spacing:-.02em;}.cls-2{fill:none;stroke-width:5px;}.cls-3{fill:#9e005d;font-size:81.36px;}.cls-5{letter-spacing:-.05em;}.cls-6{letter-spacing:0em;}.cls-7{letter-spacing:-.03em;}.cls-8{letter-spacing:-.02em;}</style></defs><g id="Layer_1"><path class="cls-2" d="m2.5,62.2v99.2c0,.91.36,1.78,1.01,2.43h0s34.55,34.55,34.55,34.55l.67.67s0-88.99,0-88.99c0,0,0-.04,0-.11-14.92-2.68-24.86-19.38-23.28-38.47.15-1.84,1.78-3.23,3.62-3.12,31.66,1.89,56.69,27.36,56.69,58.56"/><path class="cls-2" d="m150.08,62.2v99.2c0,.91-.36,1.78-1.01,2.43h0s-34.55,34.55-34.55,34.55l-1.21,1.21c0-.27,0-.54,0-.54v-88.99s0-.04,0-.11c14.92-2.68,24.86-19.38,23.28-38.47-.15-1.84-1.77-3.23-3.62-3.12-31.66,1.89-56.69,27.36-56.69,58.56"/><path class="cls-2" d="m150.08,62.2c0-33-33-59.7-73.79-59.7S2.5,29.2,2.5,62.2"/></g><g id="Layer_2"><text class="cls-1" transform="translate(160.74 101.76)"><tspan x="0" y="0">M</tspan><tspan class="cls-8" x="57.41" y="0">A</tspan><tspan x="106.1" y="0">GN</tspan><tspan class="cls-6" x="206.44" y="0">E</tspan><tspan class="cls-7" x="243.82" y="0">T</tspan><tspan x="286.11" y="0">O</tspan></text><text class="cls-3" transform="translate(314.72 182.59)"><tspan x="0" y="0">Right</tspan></text><text class="cls-3" transform="translate(164.06 182.59)"><tspan class="cls-5" x="0" y="0">W</tspan><tspan class="cls-4" x="54.19" y="0">A</tspan><tspan x="96.41" y="0">S</tspan></text></g></svg>